<?xml version="1.0" encoding="UTF-8"?>
<svg id="Layer_2" data-name="Layer 2" xmlns="http://www.w3.org/2000/svg" viewBox="0 0 150 150">
  <defs>
    <style>
      .cls-1 {
        fill: #fff;
        stroke-width: 0px;
      }
    </style>
  </defs>
  <g id="Layer_1-2" data-name="Layer 1">
    <g>
      <path class="cls-1" d="M37.36,82.88H0v67.12h48.33c15.37,0,28.53-20.73,22.23-39.14-5.04-14.74-17.78-26.92-33.19-27.99Z"/>
      <path class="cls-1" d="M52.4.05c.34,7.17.62,18.77-.22,25.3-1.51,11.82-6.69,20.38-19.97,21.23-5.66.36-8.48,3.81-8.97,9.25-.67,7.48,6.02,15.82,14.66,17.37,6.22,1.12,12.38,1.03,17.2-.4,13.05-3.88,20.23-13.83,22.73-27.14,2.42-12.94,2.68-45.65,2.68-45.65l-28.1.05Z"/>
      <path class="cls-1" d="M29.31,30.48c-4.73-1.1-8.57-5.31-8.57-9.41s3.84-6.53,8.57-5.43c4.73,1.1,8.57,5.31,8.57,9.41s-3.84,6.53-8.57,5.43Z"/>
      <path class="cls-1" d="M150,150V.11h-12.28c-12.22,0-16.78,4.33-14.99,18.02,2.88,22.01-4.71,36.1-22.13,42.53-9.96,3.68-15.92,11.63-19.12,21.78-3.38,10.75-4.32,22.79,1.88,37.99,6.98,17.11,21.83,29.56,37.52,29.56,7.82,0,29.12,0,29.12,0ZM117.99,138.77c-12.34-2.86-22.35-13.84-22.35-24.53s10-17.02,22.35-14.16c12.34,2.86,22.35,13.84,22.35,24.53s-10,17.02-22.35,14.16Z"/>
    </g>
  </g>
</svg>